<svg xmlns="http://www.w3.org/2000/svg" xmlns:xlink="http://www.w3.org/1999/xlink" width="200" zoomAndPan="magnify" viewBox="0 0 150 37.5" height="50" preserveAspectRatio="xMidYMid meet" version="1.0">

<defs><g/><clipPath id="33c0c6feb2"><path d="M 0.988281 0 L 149.011719 0 L 149.011719 37.007812 L 0.988281 37.007812 Z M 0.988281 0 " clip-rule="nonzero"/></clipPath><clipPath id="b1a7ba5d2b"><path d="M 7 5 L 149.011719 5 L 149.011719 32 L 7 32 Z M 7 5 " clip-rule="nonzero"/></clipPath><clipPath id="b32d46e441"><path d="M 0.144531 0.683594 L 133 0.683594 L 133 26.261719 L 0.144531 26.261719 Z M 0.144531 0.683594 " clip-rule="nonzero"/></clipPath><clipPath id="dcfe8027b7"><path d="M 0.144531 5 L 11 5 L 11 19 L 0.144531 19 Z M 0.144531 5 " clip-rule="nonzero"/></clipPath><clipPath id="6bb107be1d"><path d="M 0.144531 5 L 11 5 L 11 19 L 0.144531 19 Z M 0.144531 5 " clip-rule="nonzero"/></clipPath><clipPath id="67bf2d57c7"><rect x="0" width="133" y="0" height="27"/></clipPath><clipPath id="4c5a8abb6b"><path d="M 102.972656 6.144531 L 108 6.144531 L 108 19 L 102.972656 19 Z M 102.972656 6.144531 " clip-rule="nonzero"/></clipPath><clipPath id="9b09a9c81d"><path d="M 107 6.144531 L 110 6.144531 L 110 19.136719 L 107 19.136719 Z M 107 6.144531 " clip-rule="nonzero"/></clipPath><clipPath id="806f95dcdd"><path d="M 109 6.144531 L 111.632812 6.144531 L 111.632812 19.136719 L 109 19.136719 Z M 109 6.144531 " clip-rule="nonzero"/></clipPath><clipPath id="92d98d4ef8"><path d="M 134 5 L 136 5 L 136 10 L 134 10 Z M 134 5 " clip-rule="nonzero"/></clipPath><clipPath id="e15916225c"><path d="M 127.4375 12.632812 L 134.789062 5.285156 L 142.136719 12.632812 L 134.789062 19.980469 Z M 127.4375 12.632812 " clip-rule="nonzero"/></clipPath><clipPath id="aaf7c1ae56"><path d="M 127.4375 12.632812 L 134.789062 5.285156 L 142.136719 12.632812 L 134.789062 19.980469 Z M 127.4375 12.632812 " clip-rule="nonzero"/></clipPath><clipPath id="1cdb754406"><path d="M 133 9 L 136 9 L 136 13 L 133 13 Z M 133 9 " clip-rule="nonzero"/></clipPath><clipPath id="17d0f32b97"><path d="M 127.4375 12.632812 L 134.789062 5.285156 L 142.136719 12.632812 L 134.789062 19.980469 Z M 127.4375 12.632812 " clip-rule="nonzero"/></clipPath><clipPath id="7a2b989917"><path d="M 127.4375 12.632812 L 134.789062 5.285156 L 142.136719 12.632812 L 134.789062 19.980469 Z M 127.4375 12.632812 " clip-rule="nonzero"/></clipPath><clipPath id="c2fa9e14a7"><path d="M 133 11 L 136 11 L 136 13 L 133 13 Z M 133 11 " clip-rule="nonzero"/></clipPath><clipPath id="fe7758c154"><path d="M 127.4375 12.632812 L 134.789062 5.285156 L 142.136719 12.632812 L 134.789062 19.980469 Z M 127.4375 12.632812 " clip-rule="nonzero"/></clipPath><clipPath id="5f6b2c571f"><path d="M 127.4375 12.632812 L 134.789062 5.285156 L 142.136719 12.632812 L 134.789062 19.980469 Z M 127.4375 12.632812 " clip-rule="nonzero"/></clipPath><clipPath id="f9493bb977"><path d="M 133 12 L 136 12 L 136 19 L 133 19 Z M 133 12 " clip-rule="nonzero"/></clipPath><clipPath id="7852751d09"><path d="M 127.4375 12.632812 L 134.789062 5.285156 L 142.136719 12.632812 L 134.789062 19.980469 Z M 127.4375 12.632812 " clip-rule="nonzero"/></clipPath><clipPath id="6c3a589981"><path d="M 127.4375 12.632812 L 134.789062 5.285156 L 142.136719 12.632812 L 134.789062 19.980469 Z M 127.4375 12.632812 " clip-rule="nonzero"/></clipPath><clipPath id="2c3d4ee854"><rect x="0" width="143" y="0" height="27"/></clipPath></defs><g clip-path="url(#b1a7ba5d2b)"><g transform="matrix(1, 0, 0, 1, 7, 5)"><g clip-path="url(#2c3d4ee854)"><g clip-path="url(#b32d46e441)"><g transform="matrix(1, 0, 0, 1, 0, -0.000000000000000888)"><g clip-path="url(#67bf2d57c7)"><g clip-path="url(#dcfe8027b7)"><g fill="#81a969" fill-opacity="0.4"><g transform="translate(0.161309, 18.846693)"><g><path d="M 7.421875 -10.34375 L 7.421875 0 L 3.640625 0 L 3.640625 -10.34375 L 0.359375 -10.34375 L 0.828125 -13.171875 L 10.234375 -13.171875 L 10.703125 -10.34375 Z M 7.421875 -10.34375 "/></g></g></g></g><g fill="#81a969" fill-opacity="0.4"><g transform="translate(10.435423, 18.846693)"><g><path d="M 12.1875 -13.171875 L 12.1875 0 L 8.421875 0 L 8.421875 -6.109375 L 4.65625 -6.109375 L 4.65625 0 L 0.890625 0 L 0.890625 -13.171875 L 4.65625 -13.171875 L 4.65625 -8 L 8.421875 -8 L 8.421875 -13.171875 Z M 12.1875 -13.171875 "/></g></g></g><g fill="#81a969" fill-opacity="0.4"><g transform="translate(22.721268, 18.846693)"><g><path d="M 9.359375 -2.828125 L 8.890625 0 L 0.890625 0 L 0.890625 -13.171875 L 8.421875 -13.171875 L 8.890625 -10.34375 L 4.65625 -10.34375 L 4.65625 -8 L 8.421875 -8 L 8.421875 -5.171875 L 4.65625 -5.171875 L 4.65625 -2.828125 Z M 9.359375 -2.828125 "/></g></g></g><g fill="#81a969" fill-opacity="0.4"><g transform="translate(32.187096, 18.846693)"><g/></g></g><g fill="#81a969" fill-opacity="0.4"><g transform="translate(36.785254, 18.846693)"><g><path d="M 8.890625 0 L 0.890625 0 L 0.890625 -13.171875 L 4.65625 -13.171875 L 4.65625 -2.828125 L 8.421875 -2.828125 Z M 8.890625 0 "/></g></g></g><g fill="#81a969" fill-opacity="0.4"><g transform="translate(45.245218, 18.846693)"><g><path d="M 0.890625 -13.171875 L 4.65625 -13.171875 L 4.65625 0 L 0.890625 0 Z M 0.890625 -13.171875 "/></g></g></g><g fill="#81a969" fill-opacity="0.4"><g transform="translate(50.005031, 18.846693)"><g><path d="M 0.890625 -13.171875 L 5.140625 -13.171875 L 9.359375 -5.265625 L 9.359375 -13.171875 L 12.1875 -13.171875 L 12.1875 0 L 7.953125 0 L 3.71875 -7.90625 L 3.71875 0 L 0.890625 0 Z M 0.890625 -13.171875 "/></g></g></g><g fill="#81a969" fill-opacity="0.4"><g transform="translate(62.290876, 18.846693)"><g><path d="M 9.359375 -2.828125 L 8.890625 0 L 0.890625 0 L 0.890625 -13.171875 L 8.421875 -13.171875 L 8.890625 -10.34375 L 4.65625 -10.34375 L 4.65625 -8 L 8.421875 -8 L 8.421875 -5.171875 L 4.65625 -5.171875 L 4.65625 -2.828125 Z M 9.359375 -2.828125 "/></g></g></g><g fill="#81a969" fill-opacity="0.4"><g transform="translate(71.756708, 18.846693)"><g/></g></g><g fill="#81a969" fill-opacity="0.4"><g transform="translate(76.354862, 18.846693)"><g><path d="M 7.109375 -1.890625 C 7.460938 -1.890625 7.785156 -1.960938 8.078125 -2.109375 C 8.367188 -2.242188 8.617188 -2.40625 8.828125 -2.59375 C 9.066406 -2.789062 9.28125 -3.019531 9.46875 -3.28125 L 10.890625 -1.890625 C 10.585938 -1.523438 10.234375 -1.207031 9.828125 -0.9375 C 9.484375 -0.695312 9.046875 -0.476562 8.515625 -0.28125 C 7.972656 -0.09375 7.347656 0 6.640625 0 C 5.628906 0 4.738281 -0.191406 3.96875 -0.578125 C 3.207031 -0.941406 2.570312 -1.429688 2.0625 -2.046875 C 1.550781 -2.660156 1.171875 -3.363281 0.921875 -4.15625 C 0.660156 -4.925781 0.53125 -5.726562 0.53125 -6.5625 C 0.53125 -7.382812 0.664062 -8.191406 0.9375 -8.984375 C 1.1875 -9.773438 1.566406 -10.484375 2.078125 -11.109375 C 2.585938 -11.722656 3.222656 -12.222656 3.984375 -12.609375 C 4.742188 -12.984375 5.628906 -13.171875 6.640625 -13.171875 C 7.347656 -13.171875 7.972656 -13.078125 8.515625 -12.890625 C 9.046875 -12.679688 9.484375 -12.457031 9.828125 -12.21875 C 10.234375 -11.945312 10.585938 -11.632812 10.890625 -11.28125 L 9.46875 -9.875 C 9.28125 -10.132812 9.066406 -10.367188 8.828125 -10.578125 C 8.617188 -10.742188 8.367188 -10.90625 8.078125 -11.0625 C 7.785156 -11.207031 7.460938 -11.28125 7.109375 -11.28125 C 6.648438 -11.28125 6.242188 -11.148438 5.890625 -10.890625 C 5.535156 -10.609375 5.242188 -10.25 5.015625 -9.8125 C 4.773438 -9.363281 4.59375 -8.863281 4.46875 -8.3125 C 4.351562 -7.75 4.296875 -7.175781 4.296875 -6.59375 C 4.296875 -6.007812 4.351562 -5.4375 4.46875 -4.875 C 4.59375 -4.3125 4.773438 -3.804688 5.015625 -3.359375 C 5.242188 -2.910156 5.535156 -2.554688 5.890625 -2.296875 C 6.242188 -2.023438 6.648438 -1.890625 7.109375 -1.890625 Z M 7.109375 -1.890625 "/></g></g></g><g fill="#81a969" fill-opacity="0.4"><g transform="translate(86.988211, 18.846693)"><g><path d="M 11.25 0 L 7.46875 0 L 5.609375 -5.640625 L 4.65625 -5.640625 L 4.65625 0 L 0.890625 0 L 0.890625 -13.171875 L 5.609375 -13.171875 C 6.316406 -13.171875 6.988281 -13.109375 7.625 -12.984375 C 8.238281 -12.859375 8.78125 -12.648438 9.25 -12.359375 C 9.71875 -12.054688 10.09375 -11.664062 10.375 -11.1875 C 10.644531 -10.707031 10.78125 -10.117188 10.78125 -9.421875 C 10.78125 -8.640625 10.617188 -8.003906 10.296875 -7.515625 C 9.972656 -7.003906 9.535156 -6.609375 8.984375 -6.328125 Z M 4.65625 -7.53125 C 5.050781 -7.53125 5.40625 -7.582031 5.71875 -7.6875 C 6.007812 -7.800781 6.257812 -7.945312 6.46875 -8.125 C 6.65625 -8.289062 6.804688 -8.488281 6.921875 -8.71875 C 7.015625 -8.925781 7.0625 -9.148438 7.0625 -9.390625 C 7.0625 -9.628906 7.015625 -9.863281 6.921875 -10.09375 C 6.804688 -10.320312 6.65625 -10.523438 6.46875 -10.703125 C 6.257812 -10.867188 6.007812 -11.007812 5.71875 -11.125 C 5.40625 -11.226562 5.050781 -11.28125 4.65625 -11.28125 Z M 4.65625 -7.53125 "/></g></g></g><g fill="#81a969" fill-opacity="0.4"><g transform="translate(97.980806, 18.846693)"><g><path d="M 0.890625 -13.171875 L 4.65625 -13.171875 L 4.65625 0 L 0.890625 0 Z M 0.890625 -13.171875 "/></g></g></g><g fill="#81a969" fill-opacity="0.4"><g transform="translate(102.740983, 18.846693)"><g/></g></g><g fill="#81a969" fill-opacity="0.4"><g transform="translate(107.339141, 18.846693)"><g/></g></g><g fill="#81a969" fill-opacity="0.4"><g transform="translate(111.940137, 18.846693)"><g><path d="M 4.671875 -5.234375 L 4.65625 -5.203125 L 4.65625 0 L 0.890625 0 L 0.890625 -13.171875 L 4.65625 -13.171875 L 4.65625 -9.5625 L 7 -13.171875 L 9.828125 -13.171875 L 7.046875 -8.875 L 10.3125 0 L 6.546875 0 Z M 4.671875 -5.234375 "/></g></g></g><g fill="#81a969" fill-opacity="0.4"><g transform="translate(122.357948, 18.846693)"><g><path d="M 9.359375 -2.828125 L 8.890625 0 L 0.890625 0 L 0.890625 -13.171875 L 8.421875 -13.171875 L 8.890625 -10.34375 L 4.65625 -10.34375 L 4.65625 -8 L 8.421875 -8 L 8.421875 -5.171875 L 4.65625 -5.171875 L 4.65625 -2.828125 Z M 9.359375 -2.828125 "/></g></g></g><g clip-path="url(#6bb107be1d)"><g fill="#2e4b5f" fill-opacity="1"><g transform="translate(0.161309, 18.846693)"><g><path d="M 7.421875 -10.34375 L 7.421875 0 L 3.640625 0 L 3.640625 -10.34375 L 0.359375 -10.34375 L 0.828125 -13.171875 L 10.234375 -13.171875 L 10.703125 -10.34375 Z M 7.421875 -10.34375 "/></g></g></g></g><g fill="#2e4b5f" fill-opacity="1"><g transform="translate(10.435423, 18.846693)"><g><path d="M 12.1875 -13.171875 L 12.1875 0 L 8.421875 0 L 8.421875 -6.109375 L 4.65625 -6.109375 L 4.65625 0 L 0.890625 0 L 0.890625 -13.171875 L 4.65625 -13.171875 L 4.65625 -8 L 8.421875 -8 L 8.421875 -13.171875 Z M 12.1875 -13.171875 "/></g></g></g><g fill="#2e4b5f" fill-opacity="1"><g transform="translate(22.721268, 18.846693)"><g><path d="M 9.359375 -2.828125 L 8.890625 0 L 0.890625 0 L 0.890625 -13.171875 L 8.421875 -13.171875 L 8.890625 -10.34375 L 4.65625 -10.34375 L 4.65625 -8 L 8.421875 -8 L 8.421875 -5.171875 L 4.65625 -5.171875 L 4.65625 -2.828125 Z M 9.359375 -2.828125 "/></g></g></g><g fill="#2e4b5f" fill-opacity="1"><g transform="translate(32.187096, 18.846693)"><g/></g></g><g fill="#2e4b5f" fill-opacity="1"><g transform="translate(36.785254, 18.846693)"><g><path d="M 8.890625 0 L 0.890625 0 L 0.890625 -13.171875 L 4.65625 -13.171875 L 4.65625 -2.828125 L 8.421875 -2.828125 Z M 8.890625 0 "/></g></g></g><g fill="#2e4b5f" fill-opacity="1"><g transform="translate(45.245218, 18.846693)"><g><path d="M 0.890625 -13.171875 L 4.65625 -13.171875 L 4.65625 0 L 0.890625 0 Z M 0.890625 -13.171875 "/></g></g></g><g fill="#2e4b5f" fill-opacity="1"><g transform="translate(50.005031, 18.846693)"><g><path d="M 0.890625 -13.171875 L 5.140625 -13.171875 L 9.359375 -5.265625 L 9.359375 -13.171875 L 12.1875 -13.171875 L 12.1875 0 L 7.953125 0 L 3.71875 -7.90625 L 3.71875 0 L 0.890625 0 Z M 0.890625 -13.171875 "/></g></g></g><g fill="#2e4b5f" fill-opacity="1"><g transform="translate(62.290876, 18.846693)"><g><path d="M 9.359375 -2.828125 L 8.890625 0 L 0.890625 0 L 0.890625 -13.171875 L 8.421875 -13.171875 L 8.890625 -10.34375 L 4.65625 -10.34375 L 4.65625 -8 L 8.421875 -8 L 8.421875 -5.171875 L 4.65625 -5.171875 L 4.65625 -2.828125 Z M 9.359375 -2.828125 "/></g></g></g><g fill="#2e4b5f" fill-opacity="1"><g transform="translate(71.756708, 18.846693)"><g/></g></g><g fill="#2e4b5f" fill-opacity="1"><g transform="translate(76.354862, 18.846693)"><g><path d="M 7.109375 -1.890625 C 7.460938 -1.890625 7.785156 -1.960938 8.078125 -2.109375 C 8.367188 -2.242188 8.617188 -2.40625 8.828125 -2.59375 C 9.066406 -2.789062 9.28125 -3.019531 9.46875 -3.28125 L 10.890625 -1.890625 C 10.585938 -1.523438 10.234375 -1.207031 9.828125 -0.9375 C 9.484375 -0.695312 9.046875 -0.476562 8.515625 -0.28125 C 7.972656 -0.09375 7.347656 0 6.640625 0 C 5.628906 0 4.738281 -0.191406 3.96875 -0.578125 C 3.207031 -0.941406 2.570312 -1.429688 2.0625 -2.046875 C 1.550781 -2.660156 1.171875 -3.363281 0.921875 -4.15625 C 0.660156 -4.925781 0.53125 -5.726562 0.53125 -6.5625 C 0.53125 -7.382812 0.664062 -8.191406 0.9375 -8.984375 C 1.1875 -9.773438 1.566406 -10.484375 2.078125 -11.109375 C 2.585938 -11.722656 3.222656 -12.222656 3.984375 -12.609375 C 4.742188 -12.984375 5.628906 -13.171875 6.640625 -13.171875 C 7.347656 -13.171875 7.972656 -13.078125 8.515625 -12.890625 C 9.046875 -12.679688 9.484375 -12.457031 9.828125 -12.21875 C 10.234375 -11.945312 10.585938 -11.632812 10.890625 -11.28125 L 9.46875 -9.875 C 9.28125 -10.132812 9.066406 -10.367188 8.828125 -10.578125 C 8.617188 -10.742188 8.367188 -10.90625 8.078125 -11.0625 C 7.785156 -11.207031 7.460938 -11.28125 7.109375 -11.28125 C 6.648438 -11.28125 6.242188 -11.148438 5.890625 -10.890625 C 5.535156 -10.609375 5.242188 -10.25 5.015625 -9.8125 C 4.773438 -9.363281 4.59375 -8.863281 4.46875 -8.3125 C 4.351562 -7.75 4.296875 -7.175781 4.296875 -6.59375 C 4.296875 -6.007812 4.351562 -5.4375 4.46875 -4.875 C 4.59375 -4.3125 4.773438 -3.804688 5.015625 -3.359375 C 5.242188 -2.910156 5.535156 -2.554688 5.890625 -2.296875 C 6.242188 -2.023438 6.648438 -1.890625 7.109375 -1.890625 Z M 7.109375 -1.890625 "/></g></g></g><g fill="#2e4b5f" fill-opacity="1"><g transform="translate(86.988211, 18.846693)"><g><path d="M 11.25 0 L 7.46875 0 L 5.609375 -5.640625 L 4.65625 -5.640625 L 4.65625 0 L 0.890625 0 L 0.890625 -13.171875 L 5.609375 -13.171875 C 6.316406 -13.171875 6.988281 -13.109375 7.625 -12.984375 C 8.238281 -12.859375 8.78125 -12.648438 9.25 -12.359375 C 9.71875 -12.054688 10.09375 -11.664062 10.375 -11.1875 C 10.644531 -10.707031 10.78125 -10.117188 10.78125 -9.421875 C 10.78125 -8.640625 10.617188 -8.003906 10.296875 -7.515625 C 9.972656 -7.003906 9.535156 -6.609375 8.984375 -6.328125 Z M 4.65625 -7.53125 C 5.050781 -7.53125 5.40625 -7.582031 5.71875 -7.6875 C 6.007812 -7.800781 6.257812 -7.945312 6.46875 -8.125 C 6.65625 -8.289062 6.804688 -8.488281 6.921875 -8.71875 C 7.015625 -8.925781 7.0625 -9.148438 7.0625 -9.390625 C 7.0625 -9.628906 7.015625 -9.863281 6.921875 -10.09375 C 6.804688 -10.320312 6.65625 -10.523438 6.46875 -10.703125 C 6.257812 -10.867188 6.007812 -11.007812 5.71875 -11.125 C 5.40625 -11.226562 5.050781 -11.28125 4.65625 -11.28125 Z M 4.65625 -7.53125 "/></g></g></g><g fill="#2e4b5f" fill-opacity="1"><g transform="translate(97.980806, 18.846693)"><g><path d="M 0.890625 -13.171875 L 4.65625 -13.171875 L 4.65625 0 L 0.890625 0 Z M 0.890625 -13.171875 "/></g></g></g><g fill="#2e4b5f" fill-opacity="1"><g transform="translate(102.740983, 18.846693)"><g/></g></g><g fill="#2e4b5f" fill-opacity="1"><g transform="translate(107.339141, 18.846693)"><g/></g></g><g fill="#2e4b5f" fill-opacity="1"><g transform="translate(111.940137, 18.846693)"><g><path d="M 4.671875 -5.234375 L 4.65625 -5.203125 L 4.65625 0 L 0.890625 0 L 0.890625 -13.171875 L 4.65625 -13.171875 L 4.65625 -9.5625 L 7 -13.171875 L 9.828125 -13.171875 L 7.046875 -8.875 L 10.3125 0 L 6.546875 0 Z M 4.671875 -5.234375 "/></g></g></g><g fill="#2e4b5f" fill-opacity="1"><g transform="translate(122.357948, 18.846693)"><g><path d="M 9.359375 -2.828125 L 8.890625 0 L 0.890625 0 L 0.890625 -13.171875 L 8.421875 -13.171875 L 8.890625 -10.34375 L 4.65625 -10.34375 L 4.65625 -8 L 8.421875 -8 L 8.421875 -5.171875 L 4.65625 -5.171875 L 4.65625 -2.828125 Z M 9.359375 -2.828125 "/></g></g></g></g></g></g><g clip-path="url(#4c5a8abb6b)"><path fill="#e85e20" d="M 107.367188 18.734375 C 104.804688 17.808594 102.972656 15.351562 102.972656 12.46875 C 102.972656 9.589844 104.804688 7.132812 107.367188 6.207031 Z M 107.367188 18.734375 " fill-opacity="1" fill-rule="nonzero"/></g><g clip-path="url(#9b09a9c81d)"><path fill="#e85e20" d="M 107.902344 18.902344 C 108.371094 19.027344 108.859375 19.101562 109.367188 19.125 L 109.367188 5.816406 C 108.859375 5.835938 108.371094 5.914062 107.902344 6.039062 Z M 107.902344 18.902344 " fill-opacity="1" fill-rule="nonzero"/></g><g clip-path="url(#806f95dcdd)"><path fill="#e85e20" d="M 109.898438 5.816406 L 109.898438 19.125 C 110.355469 19.105469 110.800781 19.042969 111.230469 18.9375 L 111.230469 6.003906 C 110.800781 5.898438 110.355469 5.835938 109.898438 5.816406 Z M 109.898438 5.816406 " fill-opacity="1" fill-rule="nonzero"/></g><g clip-path="url(#92d98d4ef8)"><g clip-path="url(#e15916225c)"><g clip-path="url(#aaf7c1ae56)"><path fill="#ff5f00" d="M 134.285156 9.222656 C 134.285156 9.226562 134.285156 9.226562 134.285156 9.226562 L 135.183594 9.226562 C 135.183594 9.226562 135.183594 9.226562 135.183594 9.222656 L 135.183594 6.40625 C 135.25 6.40625 135.300781 6.355469 135.300781 6.292969 L 135.300781 5.960938 C 135.300781 5.898438 135.25 5.847656 135.183594 5.847656 L 134.285156 5.847656 C 134.222656 5.847656 134.171875 5.898438 134.171875 5.960938 L 134.171875 6.292969 C 134.171875 6.355469 134.222656 6.40625 134.285156 6.40625 L 134.285156 9.222656 " fill-opacity="1" fill-rule="nonzero"/></g></g></g><g clip-path="url(#1cdb754406)"><g clip-path="url(#17d0f32b97)"><g clip-path="url(#7a2b989917)"><path fill="#ff5f00" d="M 134.953125 12.007812 L 135.917969 12.007812 L 135.917969 9.976562 L 135.707031 9.976562 C 135.480469 9.976562 135.289062 9.835938 135.21875 9.636719 L 134.253906 9.636719 C 134.179688 9.835938 133.988281 9.976562 133.765625 9.976562 L 133.554688 9.976562 L 133.554688 10.554688 L 134.953125 12.007812 " fill-opacity="1" fill-rule="nonzero"/></g></g></g><g clip-path="url(#c2fa9e14a7)"><g clip-path="url(#fe7758c154)"><g clip-path="url(#5f6b2c571f)"><path fill="#ff5f00" d="M 133.554688 11.066406 L 133.554688 11.660156 L 134.617188 12.761719 L 135.917969 12.761719 L 135.917969 12.363281 L 134.804688 12.363281 L 133.554688 11.066406 " fill-opacity="1" fill-rule="nonzero"/></g></g></g><g clip-path="url(#f9493bb977)"><g clip-path="url(#7852751d09)"><g clip-path="url(#6c3a589981)"><path fill="#ff5f00" d="M 134.464844 13.117188 L 133.554688 12.175781 L 133.554688 18.75 C 133.890625 18.855469 134.300781 18.914062 134.734375 18.914062 C 135.171875 18.914062 135.578125 18.855469 135.917969 18.75 L 135.917969 13.117188 L 134.464844 13.117188 " fill-opacity="1" fill-rule="nonzero"/></g></g></g></g></g></g></svg>

