<svg xmlns="http://www.w3.org/2000/svg" xmlns:xlink="http://www.w3.org/1999/xlink" width="180" zoomAndPan="magnify" viewBox="0 0 135 135.000003" height="180" preserveAspectRatio="xMidYMid meet" version="1.0"><defs><clipPath id="ce28b32e9c"><path d="M 0.496094 0 L 134.503906 0 L 134.503906 134.007812 L 0.496094 134.007812 Z M 0.496094 0 " clip-rule="nonzero"/></clipPath><clipPath id="2e99b617d9"><path d="M 0.496094 0 L 134.503906 0 L 134.503906 134.007812 L 0.496094 134.007812 Z M 0.496094 0 " clip-rule="nonzero"/></clipPath><clipPath id="f67e34a3f3"><path d="M 67.5 0 C 30.496094 0 0.496094 30 0.496094 67.003906 C 0.496094 104.007812 30.496094 134.007812 67.5 134.007812 C 104.503906 134.007812 134.503906 104.007812 134.503906 67.003906 C 134.503906 30 104.503906 0 67.5 0 Z M 67.5 0 " clip-rule="nonzero"/></clipPath><clipPath id="5a0d5170d1"><path d="M 0.496094 0 L 134.503906 0 L 134.503906 134.007812 L 0.496094 134.007812 Z M 0.496094 0 " clip-rule="nonzero"/></clipPath><clipPath id="63060cf8ce"><path d="M 67.5 0 C 30.496094 0 0.496094 30 0.496094 67.003906 C 0.496094 104.007812 30.496094 134.007812 67.5 134.007812 C 104.503906 134.007812 134.503906 104.007812 134.503906 67.003906 C 134.503906 30 104.503906 0 67.5 0 Z M 67.5 0 " clip-rule="nonzero"/></clipPath><clipPath id="0c78916b92"><rect x="0" width="135" y="0" height="135"/></clipPath><clipPath id="79379eeb32"><path d="M 5.378906 4.882812 L 129.613281 4.882812 L 129.613281 129.117188 L 5.378906 129.117188 Z M 5.378906 4.882812 " clip-rule="nonzero"/></clipPath><clipPath id="f15fb4dd45"><path d="M 67.496094 4.882812 C 33.191406 4.882812 5.378906 32.691406 5.378906 67 C 5.378906 101.308594 33.191406 129.117188 67.496094 129.117188 C 101.804688 129.117188 129.613281 101.308594 129.613281 67 C 129.613281 32.691406 101.804688 4.882812 67.496094 4.882812 Z M 67.496094 4.882812 " clip-rule="nonzero"/></clipPath><clipPath id="db1d9e2121"><path d="M 14.683594 14.1875 L 120.316406 14.1875 L 120.316406 119.820312 L 14.683594 119.820312 Z M 14.683594 14.1875 " clip-rule="nonzero"/></clipPath><clipPath id="4b39c95935"><path d="M 67.5 14.1875 C 38.328125 14.1875 14.683594 37.832031 14.683594 67.003906 C 14.683594 96.175781 38.328125 119.820312 67.5 119.820312 C 96.671875 119.820312 120.316406 96.175781 120.316406 67.003906 C 120.316406 37.832031 96.671875 14.1875 67.5 14.1875 Z M 67.5 14.1875 " clip-rule="nonzero"/></clipPath><clipPath id="2a76d54388"><path d="M 0.683594 0.1875 L 106.316406 0.1875 L 106.316406 105.820312 L 0.683594 105.820312 Z M 0.683594 0.1875 " clip-rule="nonzero"/></clipPath><clipPath id="b1f897b22a"><path d="M 53.5 0.1875 C 24.328125 0.1875 0.683594 23.832031 0.683594 53.003906 C 0.683594 82.175781 24.328125 105.820312 53.5 105.820312 C 82.671875 105.820312 106.316406 82.175781 106.316406 53.003906 C 106.316406 23.832031 82.671875 0.1875 53.5 0.1875 Z M 53.5 0.1875 " clip-rule="nonzero"/></clipPath><clipPath id="bdba553189"><rect x="0" width="107" y="0" height="106"/></clipPath><clipPath id="879f757d94"><path d="M 14.683594 14.1875 L 120.3125 14.1875 L 120.3125 119.816406 L 14.683594 119.816406 Z M 14.683594 14.1875 " clip-rule="nonzero"/></clipPath><clipPath id="e63339b00a"><path d="M 67.496094 14.1875 C 38.328125 14.1875 14.683594 37.832031 14.683594 67 C 14.683594 96.171875 38.328125 119.816406 67.496094 119.816406 C 96.667969 119.816406 120.3125 96.171875 120.3125 67 C 120.3125 37.832031 96.667969 14.1875 67.496094 14.1875 Z M 67.496094 14.1875 " clip-rule="nonzero"/></clipPath><clipPath id="56b49d0f7c"><path d="M 64 66 L 72 66 L 72 113.820312 L 64 113.820312 Z M 64 66 " clip-rule="nonzero"/></clipPath><clipPath id="e8169e0b29"><path d="M 77 67 L 91 67 L 91 113.820312 L 77 113.820312 Z M 77 67 " clip-rule="nonzero"/></clipPath><clipPath id="361646bfee"><path d="M 46 67 L 59 67 L 59 113.820312 L 46 113.820312 Z M 46 67 " clip-rule="nonzero"/></clipPath><clipPath id="2daad651cf"><path d="M 70 25.277344 L 96 25.277344 L 96 37 L 70 37 Z M 70 25.277344 " clip-rule="nonzero"/></clipPath><clipPath id="99e84c6c20"><path d="M 39 25.277344 L 65 25.277344 L 65 37 L 39 37 Z M 39 25.277344 " clip-rule="nonzero"/></clipPath><clipPath id="a1b7ff10b6"><rect x="0" width="135" y="0" height="135"/></clipPath></defs><g clip-path="url(#ce28b32e9c)"><g transform="matrix(1, 0, 0, 1, 0.000000000000000056, -0.000000000000003367)"><g clip-path="url(#a1b7ff10b6)"><g clip-path="url(#2e99b617d9)"><g clip-path="url(#f67e34a3f3)"><g transform="matrix(1, 0, 0, 1, 0.000000000000000056, -0.000000000000003367)"><g clip-path="url(#0c78916b92)"><g clip-path="url(#5a0d5170d1)"><g clip-path="url(#63060cf8ce)"><path fill="#2e4b5f" d="M 0.496094 0 L 134.503906 0 L 134.503906 134.007812 L 0.496094 134.007812 Z M 0.496094 0 " fill-opacity="1" fill-rule="nonzero"/></g></g></g></g></g></g><g clip-path="url(#79379eeb32)"><g clip-path="url(#f15fb4dd45)"><path stroke-linecap="butt" transform="matrix(0.776705, 0, 0, 0.776705, 5.37836, 4.882045)" fill="none" stroke-linejoin="miter" d="M 79.976011 0.000988088 C 35.809041 0.000988088 0.000703112 35.804297 0.000703112 79.976296 C 0.000703112 124.148295 35.809041 159.951603 79.976011 159.951603 C 124.14801 159.951603 159.951318 124.148295 159.951318 79.976296 C 159.951318 35.804297 124.14801 0.000988088 79.976011 0.000988088 Z M 79.976011 0.000988088 " stroke="#e85e20" stroke-width="7.668142" stroke-opacity="1" stroke-miterlimit="4"/></g></g><g clip-path="url(#db1d9e2121)"><g clip-path="url(#4b39c95935)"><g transform="matrix(1, 0, 0, 1, 14, 14)"><g clip-path="url(#bdba553189)"><g clip-path="url(#2a76d54388)"><g clip-path="url(#b1f897b22a)"><path fill="#2e4b5f" d="M 0.683594 0.1875 L 106.316406 0.1875 L 106.316406 105.820312 L 0.683594 105.820312 Z M 0.683594 0.1875 " fill-opacity="1" fill-rule="nonzero"/></g></g></g></g></g></g><g clip-path="url(#879f757d94)"><g clip-path="url(#e63339b00a)"><path stroke-linecap="butt" transform="matrix(0.776705, 0, 0, 0.776705, 14.681867, 14.185552)" fill="none" stroke-linejoin="miter" d="M 67.997826 0.00250752 C 30.444337 0.00250752 0.00222255 30.444622 0.00222255 67.998111 C 0.00222255 105.55663 30.444337 135.998744 67.997826 135.998744 C 105.556345 135.998744 135.998459 105.55663 135.998459 67.998111 C 135.998459 30.444622 105.556345 0.00250752 67.997826 0.00250752 Z M 67.997826 0.00250752 " stroke="#ffffff" stroke-width="7.668142" stroke-opacity="1" stroke-miterlimit="4"/></g></g><path fill="#ffffff" d="M 63.835938 40.667969 L 63.835938 45.800781 C 64.933594 45.433594 66.21875 45.066406 67.5 45.066406 C 68.78125 45.066406 70.066406 45.25 71.164062 45.800781 L 71.164062 40.667969 C 71.164062 39.753906 70.613281 39.019531 69.882812 39.019531 L 65.117188 39.019531 C 64.566406 39.019531 63.835938 39.753906 63.835938 40.667969 Z M 63.835938 40.667969 " fill-opacity="1" fill-rule="nonzero"/><g clip-path="url(#56b49d0f7c)"><path fill="#ffffff" d="M 71.164062 67.605469 L 71.164062 66.691406 C 70.066406 67.058594 68.964844 67.238281 67.683594 67.238281 C 66.398438 67.238281 65.300781 67.054688 64.199219 66.691406 L 64.199219 67.605469 C 64.019531 67.605469 64.019531 67.605469 64.019531 67.789062 L 64.019531 104.4375 C 64.019531 104.804688 64.019531 105.355469 64.199219 105.722656 L 66.949219 113.050781 C 67.132812 113.601562 67.5 113.785156 67.867188 113.601562 C 68.050781 113.417969 68.234375 113.234375 68.414062 113.050781 L 71.164062 105.722656 C 71.347656 105.355469 71.347656 104.804688 71.347656 104.4375 L 71.347656 67.789062 C 71.347656 67.789062 71.347656 67.605469 71.164062 67.605469 Z M 71.164062 67.605469 " fill-opacity="1" fill-rule="nonzero"/></g><path fill="#ffffff" d="M 91.058594 60.648438 L 84.160156 59.675781 L 84.367188 58.226562 L 91.261719 59.199219 Z M 91.058594 60.648438 " fill-opacity="1" fill-rule="nonzero"/><path fill="#ffffff" d="M 91.84375 54.710938 L 84.949219 53.738281 L 85.152344 52.285156 L 92.050781 53.257812 Z M 91.84375 54.710938 " fill-opacity="1" fill-rule="nonzero"/><path fill="#ffffff" d="M 90.292969 66.589844 L 83.394531 65.617188 L 83.601562 64.164062 L 90.496094 65.136719 Z M 90.292969 66.589844 " fill-opacity="1" fill-rule="nonzero"/><path fill="#ffffff" d="M 91.773438 57.445312 L 84.335938 56.398438 L 84.460938 55.492188 L 91.902344 56.539062 Z M 91.773438 57.445312 " fill-opacity="1" fill-rule="nonzero"/><g clip-path="url(#e8169e0b29)"><path fill="#ffffff" d="M 77.761719 103.523438 C 77.761719 104.074219 77.761719 104.4375 77.761719 104.988281 L 79.410156 112.5 C 79.410156 112.867188 79.59375 113.050781 79.960938 113.050781 C 80.328125 113.234375 80.691406 113.050781 80.875 112.683594 L 84.726562 105.90625 C 84.90625 105.539062 85.089844 104.988281 85.089844 104.621094 L 90.222656 68.523438 L 82.890625 67.421875 Z M 77.761719 103.523438 " fill-opacity="1" fill-rule="nonzero"/></g><path fill="#ffffff" d="M 90.804688 63.546875 L 83.363281 62.5 L 83.492188 61.59375 L 90.933594 62.640625 Z M 90.804688 63.546875 " fill-opacity="1" fill-rule="nonzero"/><path fill="#ffffff" d="M 92.972656 39.753906 L 92.054688 39.570312 L 88.207031 39.019531 C 87.472656 38.835938 86.742188 39.570312 86.742188 40.484375 L 85.273438 50.382812 L 92.605469 51.480469 L 94.070312 41.585938 C 94.070312 40.667969 93.703125 39.9375 92.972656 39.753906 Z M 92.972656 39.753906 " fill-opacity="1" fill-rule="nonzero"/><path fill="#ffffff" d="M 45.097656 62.640625 L 52.539062 61.59375 L 52.691406 62.683594 L 45.253906 63.730469 Z M 45.097656 62.640625 " fill-opacity="1" fill-rule="nonzero"/><path fill="#ffffff" d="M 43.976562 53.269531 L 50.871094 52.296875 L 51.078125 53.75 L 44.183594 54.722656 Z M 43.976562 53.269531 " fill-opacity="1" fill-rule="nonzero"/><path fill="#ffffff" d="M 44.90625 59.492188 L 51.800781 58.519531 L 52.003906 59.972656 L 45.109375 60.945312 Z M 44.90625 59.492188 " fill-opacity="1" fill-rule="nonzero"/><path fill="#ffffff" d="M 45.8125 65.53125 L 52.707031 64.558594 L 52.910156 66.011719 L 46.015625 66.984375 Z M 45.8125 65.53125 " fill-opacity="1" fill-rule="nonzero"/><path fill="#ffffff" d="M 44.195312 56.601562 L 51.632812 55.554688 L 51.785156 56.640625 L 44.347656 57.6875 Z M 44.195312 56.601562 " fill-opacity="1" fill-rule="nonzero"/><g clip-path="url(#361646bfee)"><path fill="#ffffff" d="M 53.390625 67.789062 L 46.058594 68.890625 L 51.007812 104.621094 C 51.007812 105.171875 51.191406 105.539062 51.375 105.90625 L 55.222656 112.683594 C 55.40625 113.050781 55.773438 113.234375 56.136719 113.050781 C 56.320312 113.050781 56.6875 112.867188 56.6875 112.5 L 58.335938 104.988281 C 58.519531 104.621094 58.519531 104.074219 58.335938 103.523438 Z M 53.390625 67.789062 " fill-opacity="1" fill-rule="nonzero"/></g><path fill="#ffffff" d="M 49.542969 40.484375 C 49.359375 39.570312 48.808594 38.835938 48.074219 39.019531 L 44.042969 39.570312 L 43.3125 39.753906 C 42.578125 39.9375 42.027344 40.667969 42.210938 41.585938 L 43.675781 51.480469 L 51.007812 50.382812 Z M 49.542969 40.484375 " fill-opacity="1" fill-rule="nonzero"/><g clip-path="url(#2daad651cf)"><path fill="#ffffff" d="M 94.4375 31.875 L 91.320312 31.140625 L 91.503906 30.40625 C 91.6875 29.492188 91.136719 28.574219 90.222656 28.390625 L 77.027344 25.644531 C 76.113281 25.460938 75.195312 26.007812 75.011719 26.925781 L 74.828125 27.660156 L 71.714844 26.925781 C 70.980469 26.742188 70.25 27.292969 70.066406 28.023438 C 69.882812 28.757812 70.429688 29.492188 71.164062 29.675781 L 74.28125 30.40625 L 74.097656 31.140625 C 73.914062 31.691406 74.097656 32.054688 74.28125 32.421875 C 74.464844 32.789062 74.828125 33.15625 75.378906 33.15625 L 81.976562 34.621094 L 88.574219 36.089844 C 89.121094 36.269531 89.671875 36.089844 90.222656 35.539062 C 90.40625 35.355469 90.589844 34.988281 90.773438 34.621094 L 90.957031 33.890625 L 94.070312 34.621094 C 94.804688 34.804688 95.535156 34.253906 95.71875 33.523438 C 95.71875 32.789062 95.167969 32.054688 94.4375 31.875 Z M 94.4375 31.875 " fill-opacity="1" fill-rule="nonzero"/></g><g clip-path="url(#99e84c6c20)"><path fill="#ffffff" d="M 44.410156 34.621094 C 44.410156 34.988281 44.777344 35.171875 44.960938 35.539062 C 45.328125 35.90625 45.875 36.089844 46.609375 36.089844 L 53.207031 34.621094 L 59.804688 33.15625 C 60.351562 32.972656 60.71875 32.605469 61.085938 32.054688 C 61.269531 31.691406 61.269531 31.324219 61.269531 30.957031 L 61.085938 30.222656 L 63.835938 29.675781 C 64.566406 29.492188 65.117188 28.757812 64.933594 28.023438 C 64.75 27.292969 64.019531 26.742188 63.285156 26.925781 L 60.167969 27.660156 L 59.988281 26.925781 C 59.804688 26.007812 58.886719 25.277344 57.972656 25.644531 L 44.960938 28.390625 C 44.042969 28.574219 43.3125 29.492188 43.675781 30.40625 L 43.675781 31.140625 L 40.5625 31.875 C 39.828125 32.054688 39.28125 32.789062 39.464844 33.523438 C 39.644531 34.253906 40.378906 34.804688 41.113281 34.621094 L 44.226562 33.890625 Z M 44.410156 34.621094 " fill-opacity="1" fill-rule="nonzero"/></g><path fill="#ffffff" d="M 71.53125 55.695312 C 71.347656 56.246094 70.980469 57.160156 70.613281 57.894531 C 70.429688 58.628906 70.066406 59.175781 70.066406 59.359375 C 69.882812 59.910156 69.332031 61.007812 68.78125 61.742188 C 68.050781 62.84375 66.765625 64.492188 66.582031 64.859375 C 66.582031 64.859375 66.582031 64.859375 66.398438 65.039062 C 66.21875 65.222656 66.21875 65.222656 66.035156 65.40625 C 66.21875 65.40625 66.21875 65.40625 66.398438 65.40625 C 66.398438 65.40625 66.582031 65.40625 66.582031 65.40625 L 66.765625 65.039062 C 66.765625 65.039062 66.765625 65.039062 66.949219 64.859375 C 66.949219 64.859375 67.132812 64.859375 67.132812 64.859375 L 67.316406 64.308594 C 67.316406 64.308594 67.5 64.125 67.5 64.125 L 67.867188 63.390625 C 67.867188 63.390625 67.867188 63.390625 68.050781 63.207031 C 68.050781 63.207031 68.234375 63.207031 68.234375 63.207031 L 68.597656 62.292969 C 68.597656 62.292969 68.597656 62.109375 68.78125 62.109375 C 68.78125 62.109375 68.78125 62.109375 68.964844 62.109375 L 69.332031 61.191406 C 69.332031 61.191406 69.332031 61.007812 69.515625 61.007812 C 69.515625 61.007812 69.515625 61.007812 69.699219 61.007812 L 70.066406 60.09375 C 70.066406 60.09375 70.066406 59.910156 70.25 59.910156 C 70.25 59.910156 70.25 59.910156 70.429688 59.910156 L 70.796875 58.8125 C 70.796875 58.8125 70.796875 58.628906 70.980469 58.628906 C 70.980469 58.628906 71.164062 58.628906 71.164062 58.628906 L 71.53125 57.527344 C 71.53125 57.527344 71.53125 57.34375 71.714844 57.34375 C 71.714844 57.34375 71.898438 57.34375 71.898438 57.34375 L 72.082031 56.429688 C 72.082031 56.429688 72.082031 56.246094 72.265625 56.246094 C 72.265625 56.246094 72.445312 56.246094 72.445312 56.246094 L 72.628906 55.144531 C 72.628906 55.144531 72.628906 54.960938 72.8125 54.960938 C 72.8125 54.960938 72.996094 54.960938 72.996094 54.960938 L 73.179688 54.046875 C 73.179688 54.046875 73.179688 53.863281 73.363281 53.863281 C 73.363281 53.863281 73.546875 53.863281 73.546875 53.863281 L 73.546875 52.945312 C 73.546875 52.945312 73.546875 52.761719 73.546875 52.761719 C 73.546875 52.761719 73.730469 52.761719 73.730469 52.761719 L 73.730469 51.664062 C 73.730469 51.664062 73.730469 51.480469 73.730469 51.480469 C 73.730469 51.480469 73.914062 51.480469 73.914062 51.480469 L 73.914062 51.296875 C 73.914062 51.296875 73.914062 51.113281 73.914062 51.113281 C 73.914062 51.113281 74.097656 51.113281 74.097656 51.113281 L 74.097656 50.382812 C 74.097656 50.382812 74.097656 50.199219 74.097656 50.199219 C 74.097656 50.199219 74.097656 50.199219 74.28125 50.199219 L 74.097656 49.648438 C 74.097656 49.648438 74.097656 49.464844 74.097656 49.464844 C 74.097656 49.464844 74.097656 49.464844 74.28125 49.464844 L 74.097656 48.914062 C 74.097656 48.914062 74.097656 48.730469 74.097656 48.730469 C 73.914062 48.546875 73.730469 48.546875 73.546875 48.367188 C 73.546875 48.914062 73.546875 49.464844 73.546875 50.199219 C 72.445312 52.03125 71.898438 54.597656 71.53125 55.695312 Z M 71.53125 55.695312 " fill-opacity="1" fill-rule="nonzero"/><path fill="#ffffff" d="M 74.097656 52.398438 L 74.097656 53.496094 C 74.097656 53.496094 74.097656 53.679688 74.097656 53.679688 C 74.097656 53.679688 73.914062 53.679688 73.914062 53.679688 L 73.914062 54.777344 C 73.914062 54.777344 73.914062 54.960938 73.914062 54.960938 C 73.914062 54.960938 73.730469 54.960938 73.730469 54.960938 L 73.730469 56.0625 C 73.730469 56.0625 73.730469 56.246094 73.546875 56.246094 C 73.546875 56.246094 73.363281 56.246094 73.363281 56.246094 L 72.996094 57.160156 C 72.996094 57.160156 72.996094 57.34375 72.8125 57.34375 C 72.8125 57.34375 72.628906 57.34375 72.628906 57.34375 L 72.445312 58.261719 C 72.445312 58.261719 72.445312 58.445312 72.265625 58.445312 C 72.265625 58.445312 72.082031 58.445312 72.082031 58.445312 L 71.898438 59.359375 C 71.898438 59.359375 71.898438 59.542969 71.714844 59.542969 C 71.714844 59.542969 71.53125 59.542969 71.53125 59.542969 L 71.53125 60.460938 C 71.53125 60.460938 71.53125 60.644531 71.347656 60.644531 C 71.347656 60.644531 71.164062 60.644531 71.164062 60.644531 L 70.796875 61.558594 C 70.796875 61.558594 70.796875 61.742188 70.613281 61.742188 C 70.613281 61.742188 70.613281 61.742188 70.429688 61.742188 L 70.066406 62.660156 C 70.066406 62.660156 70.066406 62.84375 69.882812 62.84375 C 69.882812 62.84375 69.699219 62.84375 69.699219 62.84375 L 69.332031 63.574219 C 69.332031 63.574219 69.332031 63.757812 69.148438 63.757812 C 69.148438 63.757812 69.148438 63.757812 68.964844 63.757812 L 68.597656 64.492188 C 68.597656 64.492188 68.597656 64.675781 68.414062 64.675781 C 68.414062 64.675781 68.234375 64.675781 68.234375 64.675781 L 67.867188 65.40625 C 67.867188 65.40625 67.683594 65.589844 67.683594 65.589844 L 67.683594 65.773438 C 67.683594 65.773438 67.867188 65.773438 67.867188 65.773438 L 68.414062 65.589844 L 68.414062 65.40625 C 68.414062 65.222656 68.414062 65.222656 68.597656 65.222656 L 68.964844 65.222656 C 68.964844 65.222656 68.964844 65.039062 68.964844 65.039062 L 69.515625 64.675781 L 69.515625 64.492188 C 69.515625 64.492188 69.515625 64.308594 69.515625 64.308594 L 70.066406 63.941406 C 70.066406 63.941406 70.066406 63.941406 70.066406 63.757812 C 70.066406 63.757812 70.066406 63.574219 70.066406 63.574219 L 70.613281 63.207031 L 70.613281 62.84375 C 70.613281 62.84375 70.613281 62.660156 70.613281 62.660156 L 71.164062 62.109375 L 71.164062 61.742188 C 71.164062 61.742188 71.164062 61.558594 71.164062 61.558594 L 71.714844 61.007812 L 71.53125 60.828125 C 71.53125 60.828125 71.53125 60.644531 71.53125 60.644531 L 72.082031 59.910156 C 72.082031 59.910156 72.082031 59.726562 72.082031 59.726562 L 72.628906 58.992188 L 72.445312 58.8125 C 72.445312 58.8125 72.445312 58.628906 72.445312 58.628906 L 72.996094 57.894531 L 73.363281 56.792969 C 73.363281 56.792969 73.363281 56.613281 73.363281 56.613281 L 73.914062 55.878906 L 73.730469 55.695312 C 73.730469 55.695312 73.730469 55.511719 73.730469 55.511719 L 74.28125 54.777344 L 74.097656 54.597656 C 74.097656 54.597656 74.097656 54.414062 74.097656 54.414062 L 74.464844 53.679688 L 74.464844 53.496094 C 74.464844 53.496094 74.464844 53.3125 74.464844 53.3125 L 74.644531 52.945312 L 74.464844 52.582031 C 74.28125 52.398438 74.28125 52.398438 74.097656 52.398438 C 74.28125 52.398438 74.097656 52.398438 74.097656 52.398438 Z M 74.097656 52.398438 " fill-opacity="1" fill-rule="nonzero"/><path fill="#ffffff" d="M 73.363281 51.664062 L 73.363281 52.761719 C 73.363281 52.761719 73.363281 52.945312 73.363281 52.945312 C 73.363281 52.945312 73.179688 52.945312 73.179688 52.945312 L 73.179688 54.046875 C 73.179688 54.046875 73.179688 54.230469 73.179688 54.230469 C 73.179688 54.230469 72.996094 54.230469 72.996094 54.230469 L 72.996094 55.328125 C 72.996094 55.328125 72.996094 55.511719 72.8125 55.511719 C 72.8125 55.511719 72.628906 55.511719 72.628906 55.511719 L 72.445312 56.429688 C 72.445312 56.429688 72.445312 56.613281 72.265625 56.613281 C 72.265625 56.613281 72.082031 56.613281 72.082031 56.613281 L 71.898438 57.527344 C 71.898438 57.527344 71.898438 57.710938 71.714844 57.710938 C 71.714844 57.710938 71.53125 57.710938 71.53125 57.710938 L 71.53125 58.628906 C 71.53125 58.628906 71.53125 58.8125 71.347656 58.8125 C 71.347656 58.8125 71.164062 58.8125 71.164062 58.8125 L 70.796875 59.910156 C 70.796875 59.910156 70.796875 60.09375 70.613281 60.09375 C 70.613281 60.09375 70.429688 60.09375 70.429688 60.09375 L 70.066406 61.191406 C 70.066406 61.191406 70.066406 61.375 69.882812 61.375 C 69.882812 61.375 69.882812 61.375 69.699219 61.375 L 69.332031 62.292969 C 69.332031 62.292969 69.332031 62.476562 69.148438 62.476562 C 69.148438 62.476562 68.964844 62.476562 68.964844 62.476562 L 68.597656 63.390625 C 68.597656 63.390625 68.597656 63.574219 68.414062 63.574219 C 68.414062 63.574219 68.414062 63.574219 68.234375 63.574219 L 67.867188 64.492188 C 67.867188 64.492188 67.867188 64.675781 67.683594 64.675781 C 67.683594 64.675781 67.5 64.675781 67.5 64.675781 L 67.132812 65.40625 C 67.132812 65.40625 66.949219 65.589844 66.949219 65.589844 L 66.765625 65.957031 C 66.765625 65.957031 66.765625 65.957031 66.582031 66.140625 C 66.582031 66.140625 66.398438 66.140625 66.398438 66.140625 L 66.398438 66.324219 C 66.582031 66.324219 66.765625 66.324219 66.949219 66.324219 L 66.949219 66.140625 C 66.949219 66.140625 66.949219 66.140625 67.132812 65.957031 C 67.132812 65.957031 67.316406 65.957031 67.316406 65.957031 L 67.5 65.40625 C 67.5 65.40625 67.683594 65.222656 67.683594 65.222656 L 68.050781 64.675781 C 68.050781 64.675781 68.050781 64.675781 68.234375 64.492188 C 68.234375 64.492188 68.414062 64.492188 68.414062 64.492188 L 68.78125 63.757812 C 68.78125 63.757812 68.78125 63.574219 68.964844 63.574219 C 68.964844 63.574219 68.964844 63.574219 69.148438 63.574219 L 69.515625 62.84375 C 69.515625 62.84375 69.515625 62.660156 69.699219 62.660156 C 69.699219 62.660156 69.699219 62.660156 69.882812 62.660156 L 70.066406 61.742188 C 70.066406 61.742188 70.066406 61.558594 70.25 61.558594 C 70.25 61.558594 70.25 61.558594 70.429688 61.558594 L 70.796875 60.460938 C 70.796875 60.460938 70.796875 60.277344 70.980469 60.277344 C 70.980469 60.277344 71.164062 60.277344 71.164062 60.277344 L 71.53125 59.175781 C 71.53125 59.175781 71.53125 58.992188 71.714844 58.992188 C 71.714844 58.992188 71.898438 58.992188 71.898438 58.992188 L 72.082031 58.078125 C 72.082031 58.078125 72.082031 57.894531 72.265625 57.894531 C 72.265625 57.894531 72.445312 57.894531 72.445312 57.894531 L 72.628906 56.976562 C 72.628906 56.976562 72.628906 56.792969 72.8125 56.792969 C 72.8125 56.792969 72.996094 56.792969 72.996094 56.792969 L 73.179688 55.878906 C 73.179688 55.878906 73.179688 55.695312 73.363281 55.695312 C 73.363281 55.695312 73.546875 55.695312 73.546875 55.695312 L 73.546875 54.777344 C 73.546875 54.777344 73.546875 54.597656 73.546875 54.597656 C 73.546875 54.597656 73.730469 54.597656 73.730469 54.597656 L 73.730469 53.496094 C 73.730469 53.496094 73.730469 53.3125 73.730469 53.3125 C 73.730469 53.3125 73.914062 53.3125 73.914062 53.3125 L 73.914062 52.214844 C 73.914062 52.214844 73.914062 52.03125 73.914062 52.03125 C 73.914062 52.03125 74.097656 52.03125 74.097656 52.03125 L 74.097656 51.296875 C 74.097656 51.296875 74.097656 51.113281 74.097656 51.113281 C 74.097656 51.113281 74.097656 51.113281 74.28125 51.113281 L 74.097656 50.566406 C 74.097656 50.566406 74.097656 50.382812 74.097656 50.382812 C 74.097656 50.382812 74.097656 50.382812 74.28125 50.382812 L 74.097656 49.832031 C 74.097656 49.832031 74.097656 49.648438 74.097656 49.648438 C 73.914062 49.648438 73.914062 49.464844 73.730469 49.464844 L 73.914062 49.832031 C 73.914062 49.832031 73.914062 50.015625 73.914062 50.015625 C 73.914062 50.015625 73.914062 50.015625 73.730469 50.015625 L 73.914062 50.746094 C 73.914062 50.746094 73.914062 50.929688 73.914062 50.929688 C 73.914062 50.929688 73.730469 50.929688 73.730469 50.929688 L 73.730469 51.664062 C 73.546875 51.480469 73.546875 51.664062 73.363281 51.664062 Z M 73.363281 51.664062 " fill-opacity="1" fill-rule="nonzero"/><path fill="#ffffff" d="M 74.28125 51.480469 L 74.28125 52.214844 L 74.464844 51.847656 L 74.28125 51.480469 C 74.28125 51.480469 74.28125 51.296875 74.28125 51.296875 L 74.464844 50.929688 L 74.464844 50.566406 C 74.464844 50.566406 74.464844 50.382812 74.464844 50.382812 C 74.464844 50.199219 74.28125 50.199219 74.28125 50.015625 L 74.28125 50.199219 C 74.28125 50.199219 74.28125 50.382812 74.28125 50.382812 C 74.28125 50.382812 74.28125 50.382812 74.097656 50.566406 L 74.28125 51.296875 C 74.464844 51.296875 74.464844 51.480469 74.28125 51.480469 C 74.464844 51.480469 74.28125 51.480469 74.28125 51.480469 Z M 74.28125 51.480469 " fill-opacity="1" fill-rule="nonzero"/><path fill="#ffffff" d="M 71.714844 51.113281 L 71.714844 52.214844 C 71.714844 52.214844 71.714844 52.398438 71.714844 52.398438 C 71.714844 52.398438 71.53125 52.398438 71.53125 52.398438 L 71.53125 53.496094 C 71.53125 53.496094 71.53125 53.679688 71.53125 53.679688 C 71.53125 53.679688 71.347656 53.679688 71.347656 53.679688 L 71.347656 54.777344 C 71.347656 54.777344 71.347656 54.960938 71.164062 54.960938 C 71.164062 54.960938 71.164062 54.960938 70.980469 54.960938 C 70.980469 54.960938 70.980469 54.960938 70.796875 54.960938 L 70.613281 55.878906 C 70.613281 55.878906 70.613281 56.0625 70.429688 56.0625 C 70.429688 56.0625 70.25 56.0625 70.25 56.0625 L 70.25 56.792969 C 70.25 56.792969 70.25 56.976562 70.066406 56.976562 C 70.066406 56.976562 69.882812 56.976562 69.882812 56.976562 L 69.699219 57.894531 C 69.699219 57.894531 69.699219 58.078125 69.515625 58.078125 C 69.515625 58.078125 69.332031 58.078125 69.332031 58.078125 L 68.964844 59.175781 C 68.964844 59.175781 68.964844 59.359375 68.78125 59.359375 C 68.78125 59.359375 68.597656 59.359375 68.597656 59.359375 L 68.234375 60.460938 C 68.234375 60.460938 68.234375 60.644531 68.050781 60.644531 C 68.050781 60.644531 68.050781 60.644531 67.867188 60.644531 L 67.5 61.558594 C 67.5 61.558594 67.5 61.742188 67.316406 61.742188 C 67.316406 61.742188 67.132812 61.742188 67.132812 61.742188 L 67.316406 62.292969 C 67.316406 62.292969 67.316406 62.476562 67.132812 62.476562 C 67.132812 62.476562 67.132812 62.476562 66.949219 62.476562 L 66.582031 63.390625 C 66.582031 63.390625 66.582031 63.574219 66.398438 63.574219 C 66.398438 63.574219 66.21875 63.574219 66.21875 63.574219 L 66.035156 64.125 C 66.035156 64.125 65.851562 64.308594 65.851562 64.308594 L 65.667969 64.492188 C 65.667969 64.492188 65.667969 64.492188 65.484375 64.675781 C 65.484375 64.675781 65.300781 64.675781 65.300781 64.675781 L 65.117188 65.039062 C 65.300781 65.039062 65.484375 65.039062 65.667969 65.222656 C 65.851562 65.039062 66.21875 64.859375 66.21875 64.675781 C 66.21875 64.675781 66.398438 64.492188 66.398438 64.492188 C 66.582031 64.308594 67.867188 62.660156 68.597656 61.558594 C 69.332031 60.460938 69.699219 59.726562 69.882812 59.359375 C 69.882812 59.175781 70.25 58.628906 70.429688 57.894531 C 70.796875 57.160156 71.164062 56.246094 71.347656 55.695312 C 71.714844 54.597656 72.265625 52.214844 72.445312 50.382812 C 72.445312 49.648438 72.445312 48.914062 72.445312 48.367188 C 72.445312 48.367188 72.445312 48.367188 72.265625 48.367188 C 72.265625 48.367188 72.265625 48.546875 72.265625 48.546875 C 72.265625 48.546875 72.265625 48.730469 72.082031 48.730469 L 72.265625 49.28125 C 72.265625 49.28125 72.265625 49.464844 72.265625 49.464844 C 72.265625 49.464844 72.265625 49.464844 72.082031 49.648438 L 72.265625 50.382812 C 72.265625 50.382812 72.265625 50.566406 72.265625 50.566406 C 72.265625 50.566406 72.082031 50.566406 72.082031 50.566406 L 72.082031 51.296875 C 71.898438 50.929688 71.898438 51.113281 71.714844 51.113281 C 71.898438 51.113281 71.714844 51.113281 71.714844 51.113281 Z M 71.714844 51.113281 " fill-opacity="1" fill-rule="nonzero"/><path fill="#ffffff" d="M 75.011719 50.929688 C 75.011719 51.113281 75.011719 51.113281 75.011719 50.929688 L 74.828125 51.480469 L 75.011719 51.847656 C 75.011719 51.847656 75.011719 52.03125 75.011719 52.03125 L 74.828125 52.398438 L 75.011719 52.761719 C 75.011719 52.761719 75.011719 52.945312 75.011719 52.945312 L 74.828125 53.3125 L 74.828125 53.496094 C 74.828125 53.496094 74.828125 53.496094 74.828125 53.679688 L 74.464844 54.230469 L 74.644531 54.414062 C 74.644531 54.414062 74.644531 54.597656 74.644531 54.597656 L 74.097656 55.328125 L 74.097656 55.511719 C 74.097656 55.511719 74.097656 55.695312 74.097656 55.695312 L 73.546875 56.429688 L 73.730469 56.613281 C 73.730469 56.613281 73.730469 56.792969 73.730469 56.792969 L 73.179688 57.527344 L 73.363281 57.710938 C 73.363281 57.710938 73.363281 57.894531 73.363281 57.894531 L 72.8125 58.628906 L 72.8125 58.8125 C 72.8125 58.8125 72.8125 58.992188 72.8125 58.992188 L 72.265625 59.726562 L 72.445312 59.910156 C 72.445312 59.910156 72.445312 60.09375 72.445312 60.09375 L 71.714844 60.828125 L 71.714844 61.191406 C 71.714844 61.191406 71.714844 61.375 71.714844 61.375 L 71.164062 61.925781 L 71.164062 62.292969 C 71.164062 62.292969 71.164062 62.476562 71.164062 62.476562 L 70.796875 62.84375 C 70.796875 62.84375 70.796875 62.84375 70.796875 63.023438 C 70.796875 63.023438 70.796875 63.207031 70.796875 63.207031 L 70.25 63.757812 L 70.25 63.941406 C 70.25 63.941406 70.25 64.125 70.25 64.125 L 69.699219 64.492188 C 69.699219 64.492188 69.699219 64.675781 69.699219 64.675781 C 69.699219 64.675781 69.699219 64.675781 69.515625 64.859375 L 69.332031 65.039062 L 69.332031 65.222656 C 73.546875 64.492188 76.84375 60.644531 76.84375 56.246094 C 76.84375 54.230469 76.113281 52.398438 75.011719 50.746094 Z M 75.011719 50.929688 " fill-opacity="1" fill-rule="nonzero"/><path fill="#ffffff" d="M 64.75 64.675781 C 64.75 64.492188 64.75 64.492188 64.75 64.675781 C 64.933594 64.675781 64.933594 64.675781 64.933594 64.675781 L 65.117188 64.308594 C 65.117188 64.308594 65.117188 64.308594 65.300781 64.125 C 65.300781 64.125 65.484375 64.125 65.484375 64.125 L 65.667969 63.574219 C 65.667969 63.574219 65.851562 63.390625 65.851562 63.390625 L 66.21875 62.660156 C 66.21875 62.660156 66.21875 62.660156 66.398438 62.476562 C 66.398438 62.476562 66.582031 62.476562 66.582031 62.476562 L 66.949219 61.558594 C 66.949219 61.558594 66.949219 61.375 67.132812 61.375 C 67.132812 61.375 67.132812 61.375 67.316406 61.375 L 67.683594 60.644531 C 67.683594 60.644531 67.683594 60.460938 67.867188 60.460938 C 67.867188 60.460938 67.867188 60.460938 68.050781 60.460938 L 68.414062 59.542969 C 68.414062 59.542969 68.414062 59.359375 68.597656 59.359375 C 68.597656 59.359375 68.597656 59.359375 68.78125 59.359375 L 69.148438 58.261719 C 69.148438 58.261719 69.148438 58.078125 69.332031 58.078125 C 69.332031 58.078125 69.515625 58.078125 69.515625 58.078125 L 69.882812 56.976562 C 69.882812 56.976562 69.882812 56.792969 70.066406 56.792969 C 70.066406 56.792969 70.25 56.792969 70.25 56.792969 L 70.429688 55.878906 C 70.429688 55.878906 70.429688 55.695312 70.613281 55.695312 C 70.613281 55.695312 70.796875 55.695312 70.796875 55.695312 L 70.980469 54.777344 C 70.980469 54.777344 70.980469 54.597656 71.164062 54.597656 C 71.164062 54.597656 71.347656 54.597656 71.347656 54.597656 L 71.53125 53.679688 C 71.53125 53.679688 71.53125 53.496094 71.714844 53.496094 C 71.714844 53.496094 71.898438 53.496094 71.898438 53.496094 L 71.898438 52.582031 C 71.898438 52.582031 71.898438 52.398438 71.898438 52.398438 C 71.898438 52.398438 72.082031 52.398438 72.082031 52.398438 L 72.082031 51.296875 C 72.082031 51.296875 72.082031 51.113281 72.082031 51.113281 C 72.082031 51.113281 72.265625 51.113281 72.265625 51.113281 L 72.265625 50.015625 C 72.265625 50.015625 72.265625 49.832031 72.265625 49.832031 C 72.265625 49.832031 72.445312 49.832031 72.445312 49.832031 L 72.445312 49.097656 C 72.445312 49.097656 72.445312 48.914062 72.445312 48.914062 C 72.445312 48.914062 72.445312 48.914062 72.628906 48.914062 L 72.445312 48.367188 C 72.445312 48.367188 72.445312 48.183594 72.445312 48.183594 C 72.445312 48.183594 72.445312 48.183594 72.628906 48.183594 L 72.445312 47.632812 C 72.445312 47.632812 72.445312 47.449219 72.445312 47.449219 C 72.445312 47.449219 72.445312 47.449219 72.628906 47.265625 L 72.445312 46.898438 C 72.265625 46.898438 72.082031 46.714844 71.898438 46.714844 L 72.082031 47.082031 C 72.082031 47.082031 72.082031 47.265625 72.082031 47.265625 C 72.082031 47.265625 72.082031 47.449219 71.898438 47.449219 L 72.082031 48 C 72.082031 48 72.082031 48.183594 72.082031 48.183594 C 72.082031 48.183594 72.082031 48.183594 71.898438 48.367188 L 72.082031 48.914062 C 72.082031 48.914062 72.082031 49.097656 72.082031 49.097656 C 72.082031 49.097656 72.082031 49.097656 71.898438 49.097656 L 71.898438 49.832031 C 71.898438 49.832031 71.898438 50.015625 71.898438 50.015625 C 71.898438 50.015625 71.714844 50.015625 71.714844 50.015625 L 71.714844 51.113281 C 71.714844 51.113281 71.714844 51.296875 71.714844 51.296875 C 71.714844 51.296875 71.53125 51.296875 71.53125 51.296875 L 71.53125 52.214844 C 71.53125 52.214844 71.53125 52.398438 71.53125 52.398438 C 71.53125 52.398438 71.347656 52.398438 71.347656 52.398438 L 71.347656 53.3125 C 71.347656 53.3125 71.347656 53.496094 71.164062 53.496094 C 71.164062 53.496094 70.980469 53.496094 70.980469 53.496094 L 70.980469 54.414062 C 70.980469 54.414062 70.980469 54.597656 70.796875 54.597656 C 70.796875 54.597656 70.613281 54.597656 70.613281 54.597656 L 69.332031 56.246094 C 69.332031 56.246094 69.332031 56.429688 69.148438 56.429688 C 69.148438 56.429688 69.148438 56.429688 68.964844 56.429688 L 68.78125 57.34375 C 68.78125 57.34375 68.78125 57.527344 68.597656 57.527344 C 68.597656 57.527344 68.414062 57.527344 68.414062 57.527344 L 68.050781 58.628906 C 68.050781 58.628906 68.050781 58.8125 67.867188 58.8125 C 67.867188 58.8125 67.867188 58.8125 67.683594 58.8125 L 67.316406 59.726562 C 67.316406 59.726562 67.316406 59.910156 67.132812 59.910156 C 67.132812 59.910156 67.132812 59.910156 66.949219 59.910156 L 66.765625 60.828125 C 66.765625 60.828125 66.765625 61.007812 66.582031 61.007812 C 66.582031 61.007812 66.582031 61.007812 66.398438 61.007812 L 66.035156 61.742188 C 66.035156 61.742188 66.035156 61.925781 65.851562 61.925781 C 65.851562 61.925781 65.851562 61.925781 65.667969 61.925781 L 66.035156 62.292969 C 66.035156 62.292969 66.035156 62.476562 65.851562 62.476562 C 65.851562 62.476562 65.667969 62.476562 65.667969 62.476562 L 65.300781 63.207031 C 65.300781 63.207031 65.117188 63.390625 65.117188 63.390625 L 64.933594 63.757812 C 64.933594 63.757812 64.933594 63.757812 64.75 63.941406 C 64.75 63.941406 64.75 63.941406 64.566406 63.941406 L 64.566406 64.125 C 64.566406 64.125 64.382812 64.308594 64.382812 64.308594 L 64.199219 64.675781 C 64.199219 64.675781 64.019531 64.859375 64.019531 64.675781 C 64.199219 64.859375 64.382812 64.859375 64.75 64.859375 Z M 64.75 64.675781 " fill-opacity="1" fill-rule="nonzero"/><path fill="#ffffff" d="M 63.46875 63.574219 L 63.652344 63.207031 C 63.652344 63.207031 63.652344 63.207031 63.835938 63.207031 C 63.835938 63.207031 63.835938 63.207031 64.019531 63.207031 L 64.199219 62.660156 C 64.199219 62.660156 64.382812 62.476562 64.382812 62.476562 L 64.75 61.925781 C 64.75 61.925781 64.75 61.925781 64.933594 61.742188 C 64.933594 61.742188 64.933594 61.742188 65.117188 61.742188 L 65.484375 61.007812 C 65.484375 61.007812 65.484375 60.828125 65.667969 60.828125 L 66.035156 60.09375 C 66.035156 60.09375 66.035156 59.910156 66.21875 59.910156 C 66.21875 59.910156 66.21875 59.910156 66.398438 59.910156 L 66.582031 58.992188 C 66.582031 58.992188 66.582031 58.8125 66.765625 58.8125 C 66.765625 58.8125 66.765625 58.8125 66.949219 58.8125 L 67.316406 57.894531 C 67.316406 57.894531 67.316406 57.710938 67.5 57.710938 C 67.5 57.710938 67.5 57.710938 67.683594 57.710938 L 68.050781 56.792969 C 68.050781 56.792969 68.050781 56.613281 68.234375 56.613281 C 68.234375 56.613281 68.234375 56.613281 68.414062 56.613281 L 68.597656 55.695312 C 68.597656 55.695312 68.597656 55.511719 68.78125 55.511719 C 68.78125 55.511719 68.78125 55.511719 68.964844 55.511719 L 69.148438 54.597656 C 69.148438 54.597656 69.148438 54.414062 69.332031 54.414062 C 69.332031 54.414062 69.515625 54.414062 69.515625 54.414062 L 69.515625 53.496094 C 69.515625 53.496094 69.515625 53.3125 69.699219 53.3125 C 69.699219 53.3125 69.699219 53.3125 69.882812 53.3125 L 69.882812 52.398438 C 69.882812 52.398438 69.882812 52.214844 69.882812 52.214844 C 69.882812 52.214844 70.066406 52.214844 70.066406 52.214844 L 70.066406 51.296875 C 70.066406 51.296875 70.066406 51.113281 70.066406 51.113281 C 70.066406 51.113281 70.25 51.113281 70.25 51.113281 L 70.25 50.015625 C 70.25 50.015625 70.25 49.832031 70.25 49.832031 C 70.25 49.832031 70.429688 49.832031 70.429688 49.832031 L 70.429688 49.28125 C 70.429688 49.28125 70.429688 49.097656 70.429688 49.097656 C 70.429688 49.097656 70.429688 49.097656 70.613281 49.097656 L 70.429688 48.546875 C 70.429688 48.546875 70.429688 48.367188 70.429688 48.367188 C 70.429688 48.367188 70.429688 48.367188 70.613281 48.367188 L 70.429688 47.816406 C 70.429688 47.816406 70.429688 47.632812 70.429688 47.632812 C 70.429688 47.632812 70.429688 47.632812 70.613281 47.449219 L 69.515625 47.632812 C 69.515625 47.632812 69.515625 47.449219 69.515625 47.449219 L 69.332031 47.449219 C 68.78125 47.265625 68.234375 47.265625 67.5 47.265625 C 62.367188 47.265625 58.335938 51.296875 58.335938 56.429688 C 58.335938 59.726562 59.988281 62.660156 62.734375 64.125 C 62.734375 64.125 62.734375 64.125 62.917969 64.125 L 63.101562 63.757812 C 63.285156 63.574219 63.285156 63.574219 63.46875 63.574219 Z M 63.46875 63.574219 " fill-opacity="1" fill-rule="nonzero"/><path fill="#ffffff" d="M 64.199219 63.757812 C 64.199219 63.757812 64.199219 63.574219 64.199219 63.757812 C 64.382812 63.757812 64.382812 63.757812 64.382812 63.757812 L 64.566406 63.390625 C 64.566406 63.390625 64.566406 63.390625 64.75 63.207031 C 64.75 63.207031 64.75 63.207031 64.933594 63.207031 L 65.117188 62.660156 C 65.117188 62.660156 65.300781 62.476562 65.300781 62.476562 L 65.667969 61.925781 C 65.667969 61.925781 65.667969 61.925781 65.851562 61.742188 C 65.851562 61.742188 65.851562 61.742188 66.035156 61.742188 L 66.398438 61.007812 C 66.398438 61.007812 66.398438 60.828125 66.582031 60.828125 L 66.949219 60.09375 C 66.949219 60.09375 66.949219 59.910156 67.132812 59.910156 C 67.132812 59.910156 67.132812 59.910156 67.316406 59.910156 L 67.5 58.992188 C 67.5 58.992188 67.5 58.8125 67.683594 58.8125 C 67.683594 58.8125 67.683594 58.8125 67.867188 58.8125 L 68.234375 57.894531 C 68.234375 57.894531 68.234375 57.710938 68.414062 57.710938 C 68.414062 57.710938 68.414062 57.710938 68.597656 57.710938 L 68.964844 56.792969 C 68.964844 56.792969 68.964844 56.613281 69.148438 56.613281 C 69.148438 56.613281 69.148438 56.613281 69.332031 56.613281 L 69.515625 55.695312 C 69.515625 55.695312 69.515625 55.511719 69.699219 55.511719 C 69.699219 55.511719 69.699219 55.511719 69.882812 55.511719 L 70.066406 54.597656 C 70.066406 54.597656 70.066406 54.414062 70.25 54.414062 C 70.25 54.414062 70.429688 54.414062 70.429688 54.414062 L 70.429688 53.496094 C 70.429688 53.496094 70.429688 53.3125 70.613281 53.3125 C 70.613281 53.3125 70.613281 53.3125 70.796875 53.3125 L 70.796875 52.398438 C 70.796875 52.398438 70.796875 52.214844 70.796875 52.214844 C 70.796875 52.214844 70.980469 52.214844 70.980469 52.214844 L 70.980469 51.296875 C 70.980469 51.296875 70.980469 51.113281 70.980469 51.113281 C 70.980469 51.113281 71.164062 51.113281 71.164062 51.113281 L 71.164062 50.015625 C 71.164062 50.015625 71.164062 49.832031 71.164062 49.832031 C 71.164062 49.832031 71.347656 49.832031 71.347656 49.832031 L 71.347656 49.28125 C 71.347656 49.28125 71.347656 49.097656 71.347656 49.097656 C 71.347656 49.097656 71.347656 49.097656 71.53125 49.097656 L 71.347656 48.546875 C 71.347656 48.546875 71.347656 48.367188 71.347656 48.367188 C 71.347656 48.367188 71.347656 48.367188 71.53125 48.367188 L 71.347656 47.816406 C 71.347656 47.816406 71.347656 47.632812 71.347656 47.632812 C 71.347656 47.632812 71.347656 47.632812 71.53125 47.449219 L 70.25 47.632812 C 70.25 47.632812 70.25 47.449219 70.25 47.449219 C 70.066406 47.449219 70.066406 47.449219 69.882812 47.449219 C 69.882812 47.449219 69.882812 47.632812 69.699219 47.632812 L 69.882812 48 C 69.882812 48 69.882812 48.183594 69.882812 48.183594 C 69.882812 48.183594 69.882812 48.367188 69.699219 48.367188 L 69.882812 48.914062 C 69.882812 48.914062 69.882812 49.097656 69.882812 49.097656 C 69.882812 49.097656 69.882812 49.097656 69.699219 49.28125 L 69.882812 49.832031 C 69.882812 49.832031 69.882812 50.015625 69.882812 50.015625 C 69.882812 50.015625 69.882812 50.015625 69.699219 50.015625 L 69.699219 50.746094 C 69.699219 50.746094 69.699219 50.929688 69.699219 50.929688 C 69.699219 50.929688 69.515625 50.929688 69.515625 50.929688 L 69.515625 52.03125 C 69.515625 52.03125 69.515625 52.214844 69.515625 52.214844 C 69.515625 52.214844 69.332031 52.214844 69.332031 52.214844 L 69.332031 53.128906 C 69.332031 53.128906 69.332031 53.3125 69.332031 53.3125 C 69.332031 53.3125 69.148438 53.3125 69.148438 53.3125 L 69.148438 54.230469 C 69.148438 54.230469 69.148438 54.414062 68.964844 54.414062 C 68.964844 54.414062 68.78125 54.414062 68.78125 54.414062 L 68.78125 55.328125 C 68.78125 55.328125 68.78125 55.511719 68.597656 55.511719 C 68.597656 55.511719 68.414062 55.511719 68.414062 55.511719 L 68.234375 56.429688 C 68.234375 56.429688 68.234375 56.613281 68.050781 56.613281 C 68.050781 56.613281 68.050781 56.613281 67.867188 56.613281 L 67.683594 57.527344 C 67.683594 57.527344 67.683594 57.710938 67.5 57.710938 C 67.5 57.710938 67.316406 57.710938 67.316406 57.710938 L 67.5 58.445312 C 67.5 58.445312 67.5 58.628906 67.316406 58.628906 C 67.316406 58.628906 67.316406 58.628906 67.132812 58.628906 L 66.765625 59.542969 C 66.765625 59.542969 66.765625 59.726562 66.582031 59.726562 C 66.582031 59.726562 66.582031 59.726562 66.398438 59.726562 L 66.398438 60.460938 C 66.398438 60.460938 66.398438 60.644531 66.21875 60.644531 C 66.21875 60.644531 66.21875 60.644531 66.035156 60.644531 L 65.667969 61.375 C 65.667969 61.375 65.667969 61.558594 65.484375 61.558594 C 65.484375 61.558594 65.484375 61.558594 65.300781 61.558594 L 65.300781 62.292969 C 65.300781 62.292969 65.300781 62.476562 65.117188 62.476562 C 65.117188 62.476562 64.933594 62.476562 64.933594 62.476562 L 64.566406 63.207031 C 64.566406 63.207031 64.382812 63.390625 64.382812 63.390625 L 64.199219 63.757812 C 64.199219 63.574219 64.019531 63.757812 64.199219 63.757812 C 64.019531 63.757812 64.019531 63.757812 63.835938 63.574219 L 63.652344 63.941406 C 63.652344 63.941406 63.46875 63.941406 63.46875 63.941406 L 63.285156 64.125 C 63.285156 64.125 63.46875 64.125 63.46875 64.308594 C 63.46875 64.308594 63.652344 64.308594 63.652344 64.308594 L 63.835938 64.125 C 63.835938 64.125 63.835938 64.125 64.019531 64.125 Z M 64.199219 63.757812 " fill-opacity="1" fill-rule="nonzero"/></g></g></g></svg>